<svg width="153" height="153" viewBox="0 0 153 153" fill="none" xmlns="http://www.w3.org/2000/svg">
<path d="M0.799805 112.302V39.6976C0.799805 17.7594 18.5593 0 40.4974 0H113.102C135.04 0 152.8 17.7594 152.8 39.6976V112.302C152.8 134.241 135.04 152 113.102 152H88.5524L76.0163 149.388L65.0472 152.522H40.4974C18.5593 152.522 0.799805 134.241 0.799805 112.302Z" fill="url(#paint0_linear_156_4826)"/>
<path d="M106.834 100.811L109.968 78.8725H88.5522V64.7694C88.5522 58.5014 91.6862 52.7557 101.088 52.7557H110.49V33.9515C110.49 33.9515 101.611 32.3845 93.2532 32.3845C76.0161 32.3845 64.5247 42.8313 64.5247 62.1577V78.8725H45.1982V100.811H64.5247V152.522H88.5522V100.811H106.834Z" fill="white"/>
<defs>
<linearGradient id="paint0_linear_156_4826" x1="141.737" y1="11.3331" x2="12.4657" y2="140.605" gradientUnits="userSpaceOnUse">
<stop stop-color="#1677F1"/>
<stop offset="0.1756" stop-color="#186EE9"/>
<stop offset="0.4613" stop-color="#1E56D3"/>
<stop offset="0.8194" stop-color="#262EB0"/>
<stop offset="1" stop-color="#2B189C"/>
</linearGradient>
</defs>
</svg>
