<svg width="153" height="152" viewBox="0 0 153 152" fill="none" xmlns="http://www.w3.org/2000/svg">
<path d="M0.799805 112.302V39.6976C0.799805 17.7594 18.5593 0 40.4974 0H113.102C135.04 0 152.8 17.7594 152.8 39.6976V112.302C152.8 134.241 135.04 152 113.102 152H40.4974C19.0816 152 0.799805 134.241 0.799805 112.302Z" fill="url(#paint0_linear_156_4831)"/>
<path d="M101.09 47.0103C97.9556 47.0103 95.8662 49.6219 95.8662 52.2336C95.8662 55.3676 98.4779 57.457 101.09 57.457C104.224 57.457 106.313 54.8453 106.313 52.2336C106.313 49.0996 103.701 47.0103 101.09 47.0103Z" fill="white"/>
<path d="M77.5832 53.801C65.5694 53.801 55.645 63.7254 55.645 75.7392C55.645 87.7529 65.5694 97.6773 77.5832 97.6773C89.5969 97.6773 99.5213 87.7529 99.5213 75.7392C99.5213 63.7254 90.1193 53.801 77.5832 53.801ZM77.5832 89.8423C69.7481 89.8423 63.4801 83.5742 63.4801 75.7392C63.4801 67.9041 69.7481 61.6361 77.5832 61.6361C85.4182 61.6361 91.6863 67.9041 91.6863 75.7392C91.6863 83.5742 85.4182 89.8423 77.5832 89.8423Z" fill="white"/>
<path d="M95.3436 120.66H59.8247C45.1993 120.66 33.1855 108.647 33.1855 94.0211V58.5022C33.1855 43.8768 45.1993 31.863 59.8247 31.863H95.3436C109.969 31.863 121.983 43.8768 121.983 58.5022V94.0211C121.983 108.124 109.969 120.66 95.3436 120.66ZM59.3024 39.1758C48.8557 39.1758 41.0206 47.5331 41.0206 57.4575V92.9764C41.0206 103.423 49.378 111.258 59.3024 111.258H94.8213C105.268 111.258 113.103 102.901 113.103 92.9764V57.4575C113.103 47.0108 104.746 39.1758 94.8213 39.1758H59.3024Z" fill="white"/>
<defs>
<linearGradient id="paint0_linear_156_4831" x1="155.296" y1="-2.30142" x2="-42.2481" y2="195.242" gradientUnits="userSpaceOnUse">
<stop offset="0.0011048" stop-color="#FFE185"/>
<stop offset="0.2094" stop-color="#FFBB36"/>
<stop offset="0.3765" stop-color="#FF5176"/>
<stop offset="0.5238" stop-color="#F63395"/>
<stop offset="0.7394" stop-color="#A436D2"/>
<stop offset="1" stop-color="#5F4EED"/>
</linearGradient>
</defs>
</svg>
