<svg width="153" height="153" viewBox="0 0 153 153" fill="none" xmlns="http://www.w3.org/2000/svg">
<path d="M0.799805 112.825V39.6976C0.799805 17.7594 18.5593 0 40.4974 0H113.102C135.04 0 152.8 17.7594 152.8 39.6976V112.302C152.8 134.241 135.04 152 113.102 152H41.0197C19.0816 152.522 0.799805 134.763 0.799805 112.825Z" fill="url(#paint0_linear_156_4822)"/>
<path d="M118.325 65.292C118.325 55.3676 109.968 47.0103 100.044 47.0103H53.0333C43.1089 47.0103 34.7515 55.3676 34.7515 65.292V87.2302C34.7515 97.1546 43.1089 105.512 53.0333 105.512H100.044C109.968 105.512 118.325 97.1546 118.325 87.2302V65.292ZM90.6415 77.8281L69.748 88.2749C68.7034 88.7972 66.0917 88.2749 66.0917 87.2302V65.8144C66.0917 64.7697 68.7034 64.2474 69.748 64.7697L90.1192 75.7388C90.6415 76.2611 91.6862 77.3058 90.6415 77.8281Z" fill="white"/>
<defs>
<linearGradient id="paint0_linear_156_4822" x1="141.984" y1="11.7181" x2="12.7128" y2="140.99" gradientUnits="userSpaceOnUse">
<stop stop-color="#FF0000"/>
<stop offset="1" stop-color="#9B0000"/>
</linearGradient>
</defs>
</svg>
